# Vectary OBJ Export units=mm
mtllib Plane.mtl
o 000_Merged_Objects
g Merged_Objects
usemtl Cone material 1_048903d8-304a-49d5-8267-7e375e717766
v -118.449 139.165 -71.443
v -68.606 145.539 -71.614
v -68.634 144.513 -90.152
v -18.763 151.913 -71.786
v -18.820 149.861 -108.861
v -68.599 141.969 -101.601
v -18.750 144.774 -131.759
v -68.514 138.880 -101.589
v -18.580 138.596 -131.736
v -68.412 136.426 -90.121
v -18.374 133.686 -108.800
v -68.330 135.542 -71.577
v -18.212 131.920 -71.711
v -68.302 136.568 -53.040
v -18.155 133.972 -34.637
v -68.337 139.112 -41.590
v -18.225 139.059 -11.738
v -68.422 142.201 -41.602
v -18.395 145.237 -11.761
v -68.525 144.656 -53.070
v -18.600 150.146 -34.698
v -18.487 141.916 -71.749
v 2.685 212.277 -75.613
v 4.311 187.205 -75.521
v 3.806 187.186 -84.790
v 5.937 162.133 -75.429
v 4.928 162.095 -93.967
v 2.540 187.207 -90.516
v 2.395 162.138 -105.419
v 0.996 187.261 -90.512
v -0.693 162.246 -105.410
v -0.236 187.327 -84.779
v -3.157 162.377 -93.945
v -0.686 187.379 -75.507
v -4.057 162.482 -75.401
v -0.181 187.398 -66.238
v -3.048 162.520 -56.863
v 1.085 187.377 -60.512
v -0.515 162.477 -45.411
v 2.629 187.323 -60.516
v 2.573 162.369 -45.420
v 3.861 187.257 -66.249
v 5.037 162.238 -56.886
v 0.940 162.308 -75.415
v -0.000 141.311 120.905
v 12.500 141.311 95.905
v 10.113 148.658 95.905
v 25.000 141.311 70.905
v 20.225 156.005 70.905
v 3.863 153.199 95.905
v 7.725 165.086 70.905
v -3.863 153.199 95.905
v -7.725 165.086 70.905
v -10.113 148.658 95.905
v -20.225 156.005 70.905
v -12.500 141.311 95.905
v -25.000 141.311 70.905
v -10.113 133.963 95.905
v -20.225 126.616 70.905
v -3.863 129.423 95.905
v -7.725 117.535 70.905
v 3.863 129.423 95.905
v 7.725 117.535 70.905
v 10.113 133.963 95.905
v 20.225 126.616 70.905
v -0.000 141.311 70.905
v 25.000 141.865 -129.654
v 20.225 157.316 -129.654
v 20.225 157.316 70.346
v 25.000 141.865 70.346
v 7.725 166.865 -129.654
v 7.725 166.865 70.346
v -7.725 166.865 -129.654
v -7.725 166.865 70.346
v -20.225 157.316 -129.654
v -20.225 157.316 70.346
v -25.000 141.865 -129.654
v -25.000 141.865 70.346
v -20.225 126.414 -129.654
v -20.225 126.414 70.346
v -7.725 116.865 -129.654
v -7.725 116.865 70.346
v 7.725 116.865 -129.654
v 7.725 116.865 70.346
v 20.225 126.414 -129.654
v 20.225 126.414 70.346
v -0.000 141.865 -129.654
v -0.000 141.865 70.346
v 116.901 138.058 -72.134
v 66.779 134.485 -71.972
v 66.752 135.368 -90.517
v 16.658 130.911 -71.810
v 16.602 132.677 -108.899
v 66.789 137.822 -101.985
v 16.677 137.587 -131.836
v 66.877 140.911 -101.997
v 16.853 143.764 -131.861
v 66.982 143.455 -90.548
v 17.063 148.851 -108.963
v 67.064 144.480 -72.011
v 17.227 150.903 -71.889
v 67.092 143.597 -53.467
v 17.282 149.137 -34.800
v 67.055 141.143 -41.998
v 17.208 144.227 -11.863
v 66.967 138.054 -41.986
v 17.032 138.049 -11.838
v 66.861 135.511 -53.435
v 16.822 132.963 -34.736
v 16.942 140.907 -71.850
vn -0.12686 0.99192 -0.00345
vn -0.12686 0.99192 -0.00345
vn -0.14931 0.98186 -0.11690
vn -0.12686 0.99192 -0.00345
vn -0.12686 0.99192 -0.00345
vn -0.14931 0.98186 -0.11690
vn -0.14931 0.98186 -0.11690
vn -0.14931 0.98186 -0.11690
vn -0.14931 0.98186 -0.11690
vn -0.30417 0.85336 -0.42340
vn -0.14931 0.98186 -0.11690
vn -0.14931 0.98186 -0.11690
vn -0.30417 0.85336 -0.42340
vn -0.30417 0.85336 -0.42340
vn -0.30417 0.85336 -0.42340
vn -0.30417 0.85336 -0.42340
vn -0.25665 -0.87197 -0.41689
vn -0.30417 0.85336 -0.42340
vn -0.30417 0.85336 -0.42340
vn -0.25665 -0.87197 -0.41689
vn -0.25665 -0.87197 -0.41689
vn -0.25665 -0.87197 -0.41689
vn -0.25665 -0.87197 -0.41689
vn -0.09503 -0.98944 -0.10946
vn -0.25665 -0.87197 -0.41689
vn -0.25665 -0.87197 -0.41689
vn -0.09503 -0.98944 -0.10946
vn -0.09503 -0.98944 -0.10946
vn -0.09503 -0.98944 -0.10946
vn -0.09503 -0.98944 -0.10946
vn -0.07207 -0.99739 0.00406
vn -0.09503 -0.98944 -0.10946
vn -0.09503 -0.98944 -0.10946
vn -0.07207 -0.99739 0.00406
vn -0.07207 -0.99739 0.00406
vn -0.07207 -0.99739 0.00406
vn -0.07207 -0.99739 0.00406
vn -0.09435 -0.98856 0.11765
vn -0.07207 -0.99739 0.00406
vn -0.07207 -0.99739 0.00406
vn -0.09435 -0.98856 0.11765
vn -0.09435 -0.98856 0.11765
vn -0.09435 -0.98856 0.11765
vn -0.09435 -0.98856 0.11765
vn -0.25416 -0.86872 0.42511
vn -0.09435 -0.98856 0.11765
vn -0.09435 -0.98856 0.11765
vn -0.25416 -0.86872 0.42511
vn -0.25416 -0.86872 0.42511
vn -0.25416 -0.86872 0.42511
vn -0.25416 -0.86872 0.42511
vn -0.30168 0.85660 0.41860
vn -0.25416 -0.86872 0.42511
vn -0.25416 -0.86872 0.42511
vn -0.30168 0.85660 0.41860
vn -0.30168 0.85660 0.41860
vn -0.30168 0.85660 0.41860
vn -0.30168 0.85660 0.41860
vn -0.14864 0.98273 0.11021
vn -0.30168 0.85660 0.41860
vn -0.30168 0.85660 0.41860
vn -0.14864 0.98273 0.11021
vn -0.14864 0.98273 0.11021
vn -0.14864 0.98273 0.11021
vn -0.14864 0.98273 0.11021
vn -0.12686 0.99192 -0.00345
vn -0.14864 0.98273 0.11021
vn -0.14864 0.98273 0.11021
vn -0.12686 0.99192 -0.00345
vn -0.12686 0.99192 -0.00345
vn 0.99962 0.02752 -0.00306
vn 0.99962 0.02752 -0.00306
vn 0.99962 0.02752 -0.00306
vn 0.99962 0.02752 -0.00306
vn 0.99962 0.02752 -0.00306
vn 0.99962 0.02752 -0.00306
vn 0.99962 0.02752 -0.00306
vn 0.99962 0.02752 -0.00306
vn 0.99962 0.02752 -0.00306
vn 0.99962 0.02752 -0.00306
vn 0.99962 0.02752 -0.00306
vn 0.99962 0.02752 -0.00306
vn 0.99962 0.02752 -0.00306
vn 0.99962 0.02752 -0.00306
vn 0.99962 0.02752 -0.00306
vn 0.99962 0.02752 -0.00306
vn 0.99962 0.02752 -0.00306
vn 0.99962 0.02752 -0.00306
vn 0.99962 0.02752 -0.00306
vn 0.99962 0.02752 -0.00306
vn 0.99962 0.02752 -0.00306
vn 0.99962 0.02752 -0.00306
vn 0.99962 0.02752 -0.00306
vn 0.99962 0.02752 -0.00306
vn 0.99962 0.02752 -0.00306
vn 0.99962 0.02752 -0.00306
vn 0.99962 0.02752 -0.00306
vn 0.99962 0.02752 -0.00306
vn 0.99962 0.02752 -0.00306
vn 0.99962 0.02752 -0.00306
vn 0.99790 0.06470 -0.00320
vn 0.99790 0.06470 -0.00320
vn 0.98934 0.08694 -0.11682
vn 0.99790 0.06470 -0.00320
vn 0.99790 0.06470 -0.00320
vn 0.98934 0.08694 -0.11682
vn 0.98934 0.08694 -0.11682
vn 0.98934 0.08694 -0.11682
vn 0.98934 0.08694 -0.11682
vn 0.87097 0.24735 -0.42454
vn 0.98934 0.08694 -0.11682
vn 0.98934 0.08694 -0.11682
vn 0.87097 0.24735 -0.42454
vn 0.87097 0.24735 -0.42454
vn 0.87097 0.24735 -0.42454
vn 0.87097 0.24735 -0.42454
vn -0.85396 0.30761 -0.41967
vn 0.87097 0.24735 -0.42454
vn 0.87097 0.24735 -0.42454
vn -0.85396 0.30761 -0.41967
vn -0.85396 0.30761 -0.41967
vn -0.85396 0.30761 -0.41967
vn -0.85396 0.30761 -0.41967
vn -0.98150 0.15579 -0.11126
vn -0.85396 0.30761 -0.41967
vn -0.85396 0.30761 -0.41967
vn -0.98150 0.15579 -0.11126
vn -0.98150 0.15579 -0.11126
vn -0.98150 0.15579 -0.11126
vn -0.98150 0.15579 -0.11126
vn -0.99095 0.13418 0.00241
vn -0.98150 0.15579 -0.11126
vn -0.98150 0.15579 -0.11126
vn -0.99095 0.13418 0.00241
vn -0.99095 0.13418 0.00241
vn -0.99095 0.13418 0.00241
vn -0.99095 0.13418 0.00241
vn -0.98083 0.15667 0.11585
vn -0.99095 0.13418 0.00241
vn -0.99095 0.13418 0.00241
vn -0.98083 0.15667 0.11585
vn -0.98083 0.15667 0.11585
vn -0.98083 0.15667 0.11585
vn -0.98083 0.15667 0.11585
vn -0.85147 0.31085 0.42233
vn -0.98083 0.15667 0.11585
vn -0.98083 0.15667 0.11585
vn -0.85147 0.31085 0.42233
vn -0.85147 0.31085 0.42233
vn -0.85147 0.31085 0.42233
vn -0.85147 0.31085 0.42233
vn 0.87346 0.25059 0.41746
vn -0.85147 0.31085 0.42233
vn -0.85147 0.31085 0.42233
vn 0.87346 0.25059 0.41746
vn 0.87346 0.25059 0.41746
vn 0.87346 0.25059 0.41746
vn 0.87346 0.25059 0.41746
vn 0.99001 0.08782 0.11029
vn 0.87346 0.25059 0.41746
vn 0.87346 0.25059 0.41746
vn 0.99001 0.08782 0.11029
vn 0.99001 0.08782 0.11029
vn 0.99001 0.08782 0.11029
vn 0.99001 0.08782 0.11029
vn 0.99790 0.06470 -0.00320
vn 0.99001 0.08782 0.11029
vn 0.99001 0.08782 0.11029
vn 0.99790 0.06470 -0.00320
vn 0.99790 0.06470 -0.00320
vn -0.03490 -0.99938 0.00395
vn -0.03490 -0.99938 0.00395
vn -0.03490 -0.99938 0.00395
vn -0.03490 -0.99938 0.00395
vn -0.03490 -0.99938 0.00395
vn -0.03490 -0.99938 0.00395
vn -0.03490 -0.99938 0.00395
vn -0.03490 -0.99938 0.00395
vn -0.03490 -0.99938 0.00395
vn -0.03490 -0.99938 0.00395
vn -0.03490 -0.99938 0.00395
vn -0.03490 -0.99938 0.00395
vn -0.03490 -0.99938 0.00395
vn -0.03490 -0.99938 0.00395
vn -0.03490 -0.99938 0.00395
vn -0.03490 -0.99938 0.00395
vn -0.03490 -0.99938 0.00395
vn -0.03490 -0.99938 0.00395
vn -0.03490 -0.99938 0.00395
vn -0.03490 -0.99938 0.00395
vn -0.03490 -0.99938 0.00395
vn -0.03490 -0.99938 0.00395
vn -0.03490 -0.99938 0.00395
vn -0.03490 -0.99938 0.00395
vn -0.03490 -0.99938 0.00395
vn -0.03490 -0.99938 0.00395
vn -0.03490 -0.99938 0.00395
vn -0.03490 -0.99938 0.00395
vn -0.03490 -0.99938 0.00395
vn -0.03490 -0.99938 0.00395
vn 0.89443 -0.00000 0.44721
vn 0.89443 -0.00000 0.44721
vn 0.72360 0.52574 0.44721
vn 0.89443 -0.00000 0.44721
vn 0.89443 -0.00000 0.44721
vn 0.72360 0.52574 0.44721
vn 0.72360 0.52574 0.44721
vn 0.72360 0.52574 0.44721
vn 0.72360 0.52574 0.44721
vn 0.27639 0.85066 0.44721
vn 0.72360 0.52574 0.44721
vn 0.72360 0.52574 0.44721
vn 0.27639 0.85066 0.44721
vn 0.27639 0.85066 0.44721
vn 0.27639 0.85066 0.44721
vn 0.27639 0.85066 0.44721
vn -0.27639 0.85066 0.44721
vn 0.27639 0.85066 0.44721
vn 0.27639 0.85066 0.44721
vn -0.27639 0.85066 0.44721
vn -0.27639 0.85066 0.44721
vn -0.27639 0.85066 0.44721
vn -0.27639 0.85066 0.44721
vn -0.72360 0.52574 0.44721
vn -0.27639 0.85066 0.44721
vn -0.27639 0.85066 0.44721
vn -0.72360 0.52574 0.44721
vn -0.72360 0.52574 0.44721
vn -0.72360 0.52574 0.44721
vn -0.72360 0.52574 0.44721
vn -0.89443 0.00000 0.44721
vn -0.72360 0.52574 0.44721
vn -0.72360 0.52574 0.44721
vn -0.89443 0.00000 0.44721
vn -0.89443 0.00000 0.44721
vn -0.89443 0.00000 0.44721
vn -0.89443 0.00000 0.44721
vn -0.72360 -0.52574 0.44721
vn -0.89443 0.00000 0.44721
vn -0.89443 0.00000 0.44721
vn -0.72360 -0.52574 0.44721
vn -0.72360 -0.52574 0.44721
vn -0.72360 -0.52574 0.44721
vn -0.72360 -0.52574 0.44721
vn -0.27639 -0.85066 0.44721
vn -0.72360 -0.52574 0.44721
vn -0.72360 -0.52574 0.44721
vn -0.27639 -0.85066 0.44721
vn -0.27639 -0.85066 0.44721
vn -0.27639 -0.85066 0.44721
vn -0.27639 -0.85066 0.44721
vn 0.27639 -0.85066 0.44721
vn -0.27639 -0.85066 0.44721
vn -0.27639 -0.85066 0.44721
vn 0.27639 -0.85066 0.44721
vn 0.27639 -0.85066 0.44721
vn 0.27639 -0.85066 0.44721
vn 0.27639 -0.85066 0.44721
vn 0.72360 -0.52574 0.44721
vn 0.27639 -0.85066 0.44721
vn 0.27639 -0.85066 0.44721
vn 0.72360 -0.52574 0.44721
vn 0.72360 -0.52574 0.44721
vn 0.72360 -0.52574 0.44721
vn 0.72360 -0.52574 0.44721
vn 0.89443 -0.00000 0.44721
vn 0.72360 -0.52574 0.44721
vn 0.72360 -0.52574 0.44721
vn 0.89443 -0.00000 0.44721
vn 0.89443 -0.00000 0.44721
vn 0.00000 0.00000 -1.00000
vn 0.00000 0.00000 -1.00000
vn 0.00000 0.00000 -1.00000
vn 0.00000 0.00000 -1.00000
vn 0.00000 0.00000 -1.00000
vn 0.00000 0.00000 -1.00000
vn 0.00000 0.00000 -1.00000
vn 0.00000 0.00000 -1.00000
vn 0.00000 0.00000 -1.00000
vn 0.00000 0.00000 -1.00000
vn 0.00000 0.00000 -1.00000
vn 0.00000 0.00000 -1.00000
vn 0.00000 0.00000 -1.00000
vn 0.00000 0.00000 -1.00000
vn 0.00000 0.00000 -1.00000
vn 0.00000 0.00000 -1.00000
vn 0.00000 0.00000 -1.00000
vn 0.00000 0.00000 -1.00000
vn 0.00000 0.00000 -1.00000
vn 0.00000 0.00000 -1.00000
vn 0.00000 0.00000 -1.00000
vn 0.00000 0.00000 -1.00000
vn 0.00000 0.00000 -1.00000
vn 0.00000 0.00000 -1.00000
vn 0.00000 0.00000 -1.00000
vn 0.00000 0.00000 -1.00000
vn 0.00000 0.00000 -1.00000
vn 0.00000 0.00000 -1.00000
vn 0.00000 0.00000 -1.00000
vn 0.00000 0.00000 -1.00000
vn 1.00000 0.00000 0.00000
vn 0.82270 0.56847 0.00000
vn 0.82270 0.56847 0.00000
vn 1.00000 0.00000 0.00000
vn 0.82270 0.56847 0.00000
vn 0.32329 0.94630 0.00000
vn 0.32329 0.94630 0.00000
vn 0.82270 0.56847 0.00000
vn 0.32329 0.94630 0.00000
vn -0.32329 0.94630 0.00000
vn -0.32329 0.94630 0.00000
vn 0.32329 0.94630 0.00000
vn -0.32329 0.94630 0.00000
vn -0.82270 0.56847 0.00000
vn -0.82270 0.56847 0.00000
vn -0.32329 0.94630 0.00000
vn -0.82270 0.56847 0.00000
vn -1.00000 0.00000 0.00000
vn -1.00000 0.00000 0.00000
vn -0.82270 0.56847 0.00000
vn -1.00000 0.00000 0.00000
vn -0.82270 -0.56847 -0.00000
vn -0.82270 -0.56847 -0.00000
vn -1.00000 0.00000 0.00000
vn -0.82270 -0.56847 -0.00000
vn -0.32329 -0.94630 -0.00000
vn -0.32329 -0.94630 -0.00000
vn -0.82270 -0.56847 -0.00000
vn -0.32329 -0.94630 -0.00000
vn 0.32329 -0.94630 -0.00000
vn 0.32329 -0.94630 -0.00000
vn -0.32329 -0.94630 -0.00000
vn 0.32329 -0.94630 -0.00000
vn 0.82270 -0.56847 -0.00000
vn 0.82270 -0.56847 -0.00000
vn 0.32329 -0.94630 -0.00000
vn 0.82270 -0.56847 -0.00000
vn 1.00000 0.00000 0.00000
vn 1.00000 0.00000 0.00000
vn 0.82270 -0.56847 -0.00000
vn 0.00000 0.00000 -1.00000
vn 0.00000 0.00000 -1.00000
vn 0.00000 0.00000 -1.00000
vn 0.00000 0.00000 -1.00000
vn 0.00000 0.00000 -1.00000
vn 0.00000 0.00000 -1.00000
vn 0.00000 0.00000 -1.00000
vn 0.00000 0.00000 -1.00000
vn 0.00000 0.00000 -1.00000
vn 0.00000 0.00000 -1.00000
vn 0.00000 0.00000 -1.00000
vn 0.00000 0.00000 -1.00000
vn 0.00000 0.00000 -1.00000
vn 0.00000 0.00000 -1.00000
vn 0.00000 0.00000 -1.00000
vn 0.00000 0.00000 -1.00000
vn 0.00000 0.00000 -1.00000
vn 0.00000 0.00000 -1.00000
vn 0.00000 0.00000 -1.00000
vn 0.00000 0.00000 -1.00000
vn 0.00000 0.00000 -1.00000
vn 0.00000 0.00000 -1.00000
vn 0.00000 0.00000 -1.00000
vn 0.00000 0.00000 -1.00000
vn 0.00000 0.00000 -1.00000
vn 0.00000 0.00000 -1.00000
vn 0.00000 0.00000 -1.00000
vn 0.00000 0.00000 -1.00000
vn 0.00000 0.00000 -1.00000
vn 0.00000 0.00000 -1.00000
vn 0.00000 -0.00000 1.00000
vn 0.00000 -0.00000 1.00000
vn 0.00000 -0.00000 1.00000
vn 0.00000 -0.00000 1.00000
vn 0.00000 -0.00000 1.00000
vn 0.00000 -0.00000 1.00000
vn 0.00000 -0.00000 1.00000
vn 0.00000 -0.00000 1.00000
vn 0.00000 -0.00000 1.00000
vn 0.00000 -0.00000 1.00000
vn 0.00000 -0.00000 1.00000
vn 0.00000 -0.00000 1.00000
vn 0.00000 -0.00000 1.00000
vn 0.00000 -0.00000 1.00000
vn 0.00000 -0.00000 1.00000
vn 0.00000 -0.00000 1.00000
vn 0.00000 -0.00000 1.00000
vn 0.00000 -0.00000 1.00000
vn 0.00000 -0.00000 1.00000
vn 0.00000 -0.00000 1.00000
vn 0.00000 -0.00000 1.00000
vn 0.00000 -0.00000 1.00000
vn 0.00000 -0.00000 1.00000
vn 0.00000 -0.00000 1.00000
vn 0.00000 -0.00000 1.00000
vn 0.00000 -0.00000 1.00000
vn 0.00000 -0.00000 1.00000
vn 0.00000 -0.00000 1.00000
vn 0.00000 -0.00000 1.00000
vn 0.00000 -0.00000 1.00000
vn 0.07113 -0.99746 0.00363
vn 0.07113 -0.99746 0.00363
vn 0.09342 -0.98953 -0.11002
vn 0.07113 -0.99746 0.00363
vn 0.07113 -0.99746 0.00363
vn 0.09342 -0.98953 -0.11002
vn 0.09342 -0.98953 -0.11002
vn 0.09342 -0.98953 -0.11002
vn 0.09342 -0.98953 -0.11002
vn 0.25334 -0.87222 -0.41840
vn 0.09342 -0.98953 -0.11002
vn 0.09342 -0.98953 -0.11002
vn 0.25334 -0.87222 -0.41840
vn 0.25334 -0.87222 -0.41840
vn 0.25334 -0.87222 -0.41840
vn 0.25334 -0.87222 -0.41840
vn 0.30248 0.85306 -0.42519
vn 0.25334 -0.87222 -0.41840
vn 0.25334 -0.87222 -0.41840
vn 0.30248 0.85306 -0.42519
vn 0.30248 0.85306 -0.42519
vn 0.30248 0.85306 -0.42519
vn 0.30248 0.85306 -0.42519
vn 0.14957 0.98171 -0.11778
vn 0.30248 0.85306 -0.42519
vn 0.30248 0.85306 -0.42519
vn 0.14957 0.98171 -0.11778
vn 0.14957 0.98171 -0.11778
vn 0.14957 0.98171 -0.11778
vn 0.14957 0.98171 -0.11778
vn 0.12779 0.99179 -0.00420
vn 0.14957 0.98171 -0.11778
vn 0.14957 0.98171 -0.11778
vn 0.12779 0.99179 -0.00420
vn 0.12779 0.99179 -0.00420
vn 0.12779 0.99179 -0.00420
vn 0.12779 0.99179 -0.00420
vn 0.15024 0.98259 0.10933
vn 0.12779 0.99179 -0.00420
vn 0.12779 0.99179 -0.00420
vn 0.15024 0.98259 0.10933
vn 0.15024 0.98259 0.10933
vn 0.15024 0.98259 0.10933
vn 0.15024 0.98259 0.10933
vn 0.30497 0.85631 0.41681
vn 0.15024 0.98259 0.10933
vn 0.15024 0.98259 0.10933
vn 0.30497 0.85631 0.41681
vn 0.30497 0.85631 0.41681
vn 0.30497 0.85631 0.41681
vn 0.30497 0.85631 0.41681
vn 0.25583 -0.86897 0.42360
vn 0.30497 0.85631 0.41681
vn 0.30497 0.85631 0.41681
vn 0.25583 -0.86897 0.42360
vn 0.25583 -0.86897 0.42360
vn 0.25583 -0.86897 0.42360
vn 0.25583 -0.86897 0.42360
vn 0.09409 -0.98865 0.11709
vn 0.25583 -0.86897 0.42360
vn 0.25583 -0.86897 0.42360
vn 0.09409 -0.98865 0.11709
vn 0.09409 -0.98865 0.11709
vn 0.09409 -0.98865 0.11709
vn 0.09409 -0.98865 0.11709
vn 0.07113 -0.99746 0.00363
vn 0.09409 -0.98865 0.11709
vn 0.09409 -0.98865 0.11709
vn 0.07113 -0.99746 0.00363
vn 0.07113 -0.99746 0.00363
vn -0.99959 0.02848 0.00285
vn -0.99959 0.02848 0.00285
vn -0.99959 0.02848 0.00285
vn -0.99959 0.02848 0.00285
vn -0.99959 0.02848 0.00285
vn -0.99959 0.02848 0.00285
vn -0.99959 0.02848 0.00285
vn -0.99959 0.02848 0.00285
vn -0.99959 0.02848 0.00285
vn -0.99959 0.02848 0.00285
vn -0.99959 0.02848 0.00285
vn -0.99959 0.02848 0.00285
vn -0.99959 0.02848 0.00285
vn -0.99959 0.02848 0.00285
vn -0.99959 0.02848 0.00285
vn -0.99959 0.02848 0.00285
vn -0.99959 0.02848 0.00285
vn -0.99959 0.02848 0.00285
vn -0.99959 0.02848 0.00285
vn -0.99959 0.02848 0.00285
vn -0.99959 0.02848 0.00285
vn -0.99959 0.02848 0.00285
vn -0.99959 0.02848 0.00285
vn -0.99959 0.02848 0.00285
vn -0.99959 0.02848 0.00285
vn -0.99959 0.02848 0.00285
vn -0.99959 0.02848 0.00285
vn -0.99959 0.02848 0.00285
vn -0.99959 0.02848 0.00285
vn -0.99959 0.02848 0.00285
f 1//1 2//2 3//3 
f 4//5 5//6 3//7 2//4 
f 1//8 3//9 6//10 
f 5//12 7//13 6//14 3//11 
f 1//15 6//16 8//17 
f 7//19 9//20 8//21 6//18 
f 1//22 8//23 10//24 
f 9//26 11//27 10//28 8//25 
f 1//29 10//30 12//31 
f 11//33 13//34 12//35 10//32 
f 1//36 12//37 14//38 
f 13//40 15//41 14//42 12//39 
f 1//43 14//44 16//45 
f 15//47 17//48 16//49 14//46 
f 1//50 16//51 18//52 
f 17//54 19//55 18//56 16//53 
f 1//57 18//58 20//59 
f 19//61 21//62 20//63 18//60 
f 1//64 20//65 2//66 
f 21//68 4//69 2//70 20//67 
f 22//71 5//72 4//73 
f 22//74 7//75 5//76 
f 22//77 9//78 7//79 
f 22//80 11//81 9//82 
f 22//83 13//84 11//85 
f 22//86 15//87 13//88 
f 22//89 17//90 15//91 
f 22//92 19//93 17//94 
f 22//95 21//96 19//97 
f 22//98 4//99 21//100 
f 23//101 24//102 25//103 
f 26//105 27//106 25//107 24//104 
f 23//108 25//109 28//110 
f 27//112 29//113 28//114 25//111 
f 23//115 28//116 30//117 
f 29//119 31//120 30//121 28//118 
f 23//122 30//123 32//124 
f 31//126 33//127 32//128 30//125 
f 23//129 32//130 34//131 
f 33//133 35//134 34//135 32//132 
f 23//136 34//137 36//138 
f 35//140 37//141 36//142 34//139 
f 23//143 36//144 38//145 
f 37//147 39//148 38//149 36//146 
f 23//150 38//151 40//152 
f 39//154 41//155 40//156 38//153 
f 23//157 40//158 42//159 
f 41//161 43//162 42//163 40//160 
f 23//164 42//165 24//166 
f 43//168 26//169 24//170 42//167 
f 44//171 27//172 26//173 
f 44//174 29//175 27//176 
f 44//177 31//178 29//179 
f 44//180 33//181 31//182 
f 44//183 35//184 33//185 
f 44//186 37//187 35//188 
f 44//189 39//190 37//191 
f 44//192 41//193 39//194 
f 44//195 43//196 41//197 
f 44//198 26//199 43//200 
f 45//201 46//202 47//203 
f 48//205 49//206 47//207 46//204 
f 45//208 47//209 50//210 
f 49//212 51//213 50//214 47//211 
f 45//215 50//216 52//217 
f 51//219 53//220 52//221 50//218 
f 45//222 52//223 54//224 
f 53//226 55//227 54//228 52//225 
f 45//229 54//230 56//231 
f 55//233 57//234 56//235 54//232 
f 45//236 56//237 58//238 
f 57//240 59//241 58//242 56//239 
f 45//243 58//244 60//245 
f 59//247 61//248 60//249 58//246 
f 45//250 60//251 62//252 
f 61//254 63//255 62//256 60//253 
f 45//257 62//258 64//259 
f 63//261 65//262 64//263 62//260 
f 45//264 64//265 46//266 
f 65//268 48//269 46//270 64//267 
f 66//271 49//272 48//273 
f 66//274 51//275 49//276 
f 66//277 53//278 51//279 
f 66//280 55//281 53//282 
f 66//283 57//284 55//285 
f 66//286 59//287 57//288 
f 66//289 61//290 59//291 
f 66//292 63//293 61//294 
f 66//295 65//296 63//297 
f 66//298 48//299 65//300 
f 68//302 69//303 70//304 67//301 
f 71//306 72//307 69//308 68//305 
f 73//310 74//311 72//312 71//309 
f 75//314 76//315 74//316 73//313 
f 77//318 78//319 76//320 75//317 
f 79//322 80//323 78//324 77//321 
f 81//326 82//327 80//328 79//325 
f 83//330 84//331 82//332 81//329 
f 85//334 86//335 84//336 83//333 
f 67//338 70//339 86//340 85//337 
f 68//341 67//342 87//343 
f 71//344 68//345 87//346 
f 73//347 71//348 87//349 
f 75//350 73//351 87//352 
f 77//353 75//354 87//355 
f 79//356 77//357 87//358 
f 81//359 79//360 87//361 
f 83//362 81//363 87//364 
f 85//365 83//366 87//367 
f 67//368 85//369 87//370 
f 88//371 70//372 69//373 
f 88//374 69//375 72//376 
f 88//377 72//378 74//379 
f 88//380 74//381 76//382 
f 88//383 76//384 78//385 
f 88//386 78//387 80//388 
f 88//389 80//390 82//391 
f 88//392 82//393 84//394 
f 88//395 84//396 86//397 
f 88//398 86//399 70//400 
f 89//401 90//402 91//403 
f 92//405 93//406 91//407 90//404 
f 89//408 91//409 94//410 
f 93//412 95//413 94//414 91//411 
f 89//415 94//416 96//417 
f 95//419 97//420 96//421 94//418 
f 89//422 96//423 98//424 
f 97//426 99//427 98//428 96//425 
f 89//429 98//430 100//431 
f 99//433 101//434 100//435 98//432 
f 89//436 100//437 102//438 
f 101//440 103//441 102//442 100//439 
f 89//443 102//444 104//445 
f 103//447 105//448 104//449 102//446 
f 89//450 104//451 106//452 
f 105//454 107//455 106//456 104//453 
f 89//457 106//458 108//459 
f 107//461 109//462 108//463 106//460 
f 89//464 108//465 90//466 
f 109//468 92//469 90//470 108//467 
f 110//471 93//472 92//473 
f 110//474 95//475 93//476 
f 110//477 97//478 95//479 
f 110//480 99//481 97//482 
f 110//483 101//484 99//485 
f 110//486 103//487 101//488 
f 110//489 105//490 103//491 
f 110//492 107//493 105//494 
f 110//495 109//496 107//497 
f 110//498 92//499 109//500 
